<svg width="512" height="512" viewBox="0 0 512 512" fill="none" xmlns="http://www.w3.org/2000/svg">
  <path d="M253 112C176 26 50 76 58 194c5 76 86 151 193 234 108-83 189-158 194-234 8-118-118-168-192-82z" stroke="#092e63" stroke-width="24" stroke-linecap="round" stroke-linejoin="round"/>
  <path d="M256 112C334 25 460 76 452 194c-5 76-86 151-196 234" stroke="#c9961a" stroke-width="24" stroke-linecap="round" stroke-linejoin="round"/>
  <path d="M162 243l94-83 94 83" stroke="#092e63" stroke-width="22" stroke-linecap="round" stroke-linejoin="round"/>
  <path d="M190 244v95h132v-95" stroke="#092e63" stroke-width="18" stroke-linecap="round"/>
  <path d="M238 215h18v18h-18v-18zm30 0h18v18h-18v-18zm-30 30h18v18h-18v-18zm30 0h18v18h-18v-18z" fill="#092e63"/>
  <circle cx="211" cy="288" r="24" fill="#092e63"/>
  <path d="M170 373c9-54 77-58 91-8 13-50 82-47 91 8" stroke="#092e63" stroke-width="26" stroke-linecap="round"/>
  <circle cx="305" cy="303" r="21" fill="#c9961a"/>
  <path d="M260 366c10-42 65-44 80-5" stroke="#c9961a" stroke-width="24" stroke-linecap="round"/>
  <path d="M131 384c72 35 168 38 250 0" stroke="#092e63" stroke-width="31" stroke-linecap="round"/>
</svg>
